<svg width="272" height="120" viewBox="0 0 272 120" fill="none" xmlns="http://www.w3.org/2000/svg">
<rect width="272" height="120" fill="black"/>
<rect x="1" y="1" width="270" height="118" stroke="white" stroke-opacity="0.12" stroke-width="2"/>
<path d="M211.496 53.7373V55.2845H200.618V59.0942H210.883V60.6428H200.618V64.9266H211.999V66.4752H198.776V53.7373H211.495H211.496Z" fill="#EFE9E6"/>
<path d="M188.362 53.4531C192.025 53.4531 194.846 55.149 195.844 57.7472L194.278 58.5215C193.436 56.3649 191.282 55.0386 188.382 55.0386C184.718 55.0386 181.88 56.9935 181.88 60.1069C181.88 63.2204 184.718 65.1753 188.382 65.1753C191.282 65.1753 193.436 63.8489 194.278 61.6923L195.844 62.4666C194.846 65.0649 192.025 66.7607 188.362 66.7607C183.679 66.7607 179.978 64.0683 179.978 60.1069C179.978 56.1456 183.679 53.4531 188.362 53.4531Z" fill="#EFE9E6"/>
<path d="M176.944 66.4752H175.278L163.942 55.8939V66.4752H162.139V53.7373H164.137L175.142 63.9506V53.7373H176.945V66.4752H176.944Z" fill="#EFE9E6"/>
<path d="M149.38 53.7373H151.653L159.509 66.4752H157.315L155.061 63.0438H145.873L143.64 66.4752H141.544L149.38 53.7373ZM154.141 61.4951L151.848 57.681C151.379 56.9067 150.928 55.9484 150.457 55.1755C149.988 55.9498 149.517 56.9082 149.066 57.681L146.793 61.4951H154.14H154.141Z" fill="#EFE9E6"/>
<path d="M138.962 66.4752H137.081V53.7373H138.962V66.4752Z" fill="#EFE9E6"/>
<path d="M121.469 53.7373H123.35V64.9266H134.027V66.4752H121.469V53.7373Z" fill="#EFE9E6"/>
<path d="M105.858 53.7373H107.739V64.9266H118.416V66.4752H105.858V53.7373Z" fill="#EFE9E6"/>
<path d="M93.0439 53.7373H95.3163L103.173 66.4752H100.978L98.7249 63.0438H89.5367L87.3034 66.4752H85.2079L93.0439 53.7373ZM97.8046 61.4951L95.5119 57.681C95.0424 56.9067 94.5917 55.9484 94.1206 55.1755C93.6511 55.9498 93.18 56.9082 92.7293 57.681L90.4569 61.4951H97.8031H97.8046Z" fill="#EFE9E6"/>
<path d="M69.5685 52H68.9973C67.8267 58.2946 64.1661 63.781 59 67.5304L59.2864 68C62.3757 66.8253 65.7468 66.1732 69.2837 66.1732C72.8206 66.1732 76.1916 66.8253 79.281 68L79.5673 67.5304C74.4013 63.781 70.7391 58.2946 69.5685 52Z" fill="#EFE9E6"/>
</svg>
