<svg width="111" height="29" viewBox="0 0 111 29" fill="none" xmlns="http://www.w3.org/2000/svg">
<path d="M0.468 21L5.112 8.4H7.2L11.808 21H9.792L8.712 17.922H3.564L2.484 21H0.468ZM4.104 16.41H8.172L6.138 10.668L4.104 16.41ZM13.1331 24.96V12.072H14.8431L15.0411 13.458C15.3291 13.038 15.7251 12.666 16.2291 12.342C16.7331 12.018 17.3811 11.856 18.1731 11.856C19.0371 11.856 19.7991 12.06 20.4591 12.468C21.1191 12.876 21.6351 13.434 22.0071 14.142C22.3911 14.85 22.5831 15.654 22.5831 16.554C22.5831 17.454 22.3911 18.258 22.0071 18.966C21.6351 19.662 21.1191 20.214 20.4591 20.622C19.7991 21.018 19.0311 21.216 18.1551 21.216C17.4591 21.216 16.8411 21.078 16.3011 20.802C15.7731 20.526 15.3531 20.136 15.0411 19.632V24.96H13.1331ZM17.8311 19.56C18.6471 19.56 19.3191 19.284 19.8471 18.732C20.3751 18.168 20.6391 17.436 20.6391 16.536C20.6391 15.948 20.5191 15.426 20.2791 14.97C20.0391 14.514 19.7091 14.16 19.2891 13.908C18.8691 13.644 18.3831 13.512 17.8311 13.512C17.0151 13.512 16.3431 13.794 15.8151 14.358C15.2991 14.922 15.0411 15.648 15.0411 16.536C15.0411 17.436 15.2991 18.168 15.8151 18.732C16.3431 19.284 17.0151 19.56 17.8311 19.56ZM24.2868 24.96V12.072H25.9968L26.1948 13.458C26.4828 13.038 26.8788 12.666 27.3828 12.342C27.8868 12.018 28.5348 11.856 29.3268 11.856C30.1908 11.856 30.9528 12.06 31.6128 12.468C32.2728 12.876 32.7888 13.434 33.1608 14.142C33.5448 14.85 33.7368 15.654 33.7368 16.554C33.7368 17.454 33.5448 18.258 33.1608 18.966C32.7888 19.662 32.2728 20.214 31.6128 20.622C30.9528 21.018 30.1848 21.216 29.3088 21.216C28.6128 21.216 27.9948 21.078 27.4548 20.802C26.9268 20.526 26.5068 20.136 26.1948 19.632V24.96H24.2868ZM28.9848 19.56C29.8008 19.56 30.4728 19.284 31.0008 18.732C31.5288 18.168 31.7928 17.436 31.7928 16.536C31.7928 15.948 31.6728 15.426 31.4328 14.97C31.1928 14.514 30.8628 14.16 30.4428 13.908C30.0228 13.644 29.5368 13.512 28.9848 13.512C28.1688 13.512 27.4968 13.794 26.9688 14.358C26.4528 14.922 26.1948 15.648 26.1948 16.536C26.1948 17.436 26.4528 18.168 26.9688 18.732C27.4968 19.284 28.1688 19.56 28.9848 19.56ZM35.4405 21V8.04H37.3485V21H35.4405ZM40.4487 24.96L42.5907 20.262H42.0687L38.5407 12.072H40.6107L43.3467 18.678L46.2087 12.072H48.2247L42.4647 24.96H40.4487ZM53.6085 21V12.072H55.3005L55.4445 13.638C55.7205 13.086 56.1225 12.654 56.6505 12.342C57.1905 12.018 57.8085 11.856 58.5045 11.856C59.5845 11.856 60.4305 12.192 61.0425 12.864C61.6665 13.536 61.9785 14.538 61.9785 15.87V21H60.0885V16.068C60.0885 14.34 59.3805 13.476 57.9645 13.476C57.2565 13.476 56.6685 13.728 56.2005 14.232C55.7445 14.736 55.5165 15.456 55.5165 16.392V21H53.6085ZM68.0417 21.216C67.1897 21.216 66.4217 21.024 65.7377 20.64C65.0657 20.244 64.5317 19.698 64.1357 19.002C63.7397 18.294 63.5417 17.472 63.5417 16.536C63.5417 15.6 63.7397 14.784 64.1357 14.088C64.5437 13.38 65.0897 12.834 65.7737 12.45C66.4577 12.054 67.2197 11.856 68.0597 11.856C68.9117 11.856 69.6737 12.054 70.3457 12.45C71.0297 12.834 71.5697 13.38 71.9657 14.088C72.3737 14.784 72.5777 15.6 72.5777 16.536C72.5777 17.472 72.3737 18.294 71.9657 19.002C71.5697 19.698 71.0297 20.244 70.3457 20.64C69.6617 21.024 68.8937 21.216 68.0417 21.216ZM68.0417 19.578C68.4977 19.578 68.9177 19.464 69.3017 19.236C69.6977 19.008 70.0157 18.672 70.2557 18.228C70.4957 17.772 70.6157 17.208 70.6157 16.536C70.6157 15.864 70.4957 15.306 70.2557 14.862C70.0277 14.406 69.7157 14.064 69.3197 13.836C68.9357 13.608 68.5157 13.494 68.0597 13.494C67.6037 13.494 67.1777 13.608 66.7817 13.836C66.3977 14.064 66.0857 14.406 65.8457 14.862C65.6057 15.306 65.4857 15.864 65.4857 16.536C65.4857 17.208 65.6057 17.772 65.8457 18.228C66.0857 18.672 66.3977 19.008 66.7817 19.236C67.1657 19.464 67.5857 19.578 68.0417 19.578ZM75.7291 21L73.1011 12.072H75.0091L76.7371 18.804L78.6811 12.072H80.8051L82.7491 18.804L84.4771 12.072H86.3851L83.7571 21H81.7951L79.7431 13.98L77.6911 21H75.7291Z" fill="white"/>
<path fill-rule="evenodd" clip-rule="evenodd" d="M103.646 9.14645C103.842 8.95118 104.158 8.95118 104.354 9.14645L109.354 14.1464C109.447 14.2402 109.5 14.3674 109.5 14.5C109.5 14.6326 109.447 14.7598 109.354 14.8536L104.354 19.8536C104.158 20.0488 103.842 20.0488 103.646 19.8536C103.451 19.6583 103.451 19.3417 103.646 19.1464L107.793 15H97C96.7239 15 96.5 14.7761 96.5 14.5C96.5 14.2239 96.7239 14 97 14H107.793L103.646 9.85355C103.451 9.65829 103.451 9.34171 103.646 9.14645Z" fill="white" stroke="white" stroke-linecap="round" stroke-linejoin="round"/>
</svg>
