<svg width="78" height="23" viewBox="0 0 78 23" fill="none" xmlns="http://www.w3.org/2000/svg">
<path fill-rule="evenodd" clip-rule="evenodd" d="M9.74348 4.5633C9.94431 4.67526 10.0429 4.90975 9.98239 5.13158L8.65464 10H13.5C13.6991 10 13.8792 10.1181 13.9586 10.3007C14.0379 10.4833 14.0014 10.6956 13.8655 10.8412L6.86554 18.3412C6.70866 18.5093 6.45736 18.5487 6.25654 18.4367C6.05571 18.3248 5.95713 18.0903 6.01763 17.8685L7.34539 13H2.50001C2.30091 13 2.12079 12.8819 2.04144 12.6993C1.96209 12.5167 1.99863 12.3044 2.13448 12.1589L9.13448 4.65886C9.29137 4.49077 9.54266 4.45134 9.74348 4.5633Z" fill="#F59E0B"/>
<path d="M23.088 16.5V5.3H25.136V9.956H30.16V5.3H32.208V16.5H30.16V11.62H25.136V16.5H23.088ZM36.9609 16.5V12.516L33.2009 5.3H35.5209L38.0009 10.468L40.4649 5.3H42.7529L39.0089 12.516V16.5H36.9609ZM43.7449 16.5V5.3H48.2409C49.4035 5.3 50.2889 5.572 50.8969 6.116C51.5155 6.64933 51.8249 7.33733 51.8249 8.18C51.8249 8.884 51.6329 9.44933 51.2489 9.876C50.8755 10.292 50.4169 10.5747 49.8729 10.724C50.5129 10.852 51.0409 11.172 51.4569 11.684C51.8729 12.1853 52.0809 12.772 52.0809 13.444C52.0809 14.3293 51.7609 15.06 51.1209 15.636C50.4809 16.212 49.5742 16.5 48.4009 16.5H43.7449ZM45.7929 10.004H47.9369C48.5129 10.004 48.9555 9.87067 49.2649 9.604C49.5742 9.33733 49.7289 8.95867 49.7289 8.468C49.7289 7.99867 49.5742 7.63067 49.2649 7.364C48.9662 7.08667 48.5129 6.948 47.9049 6.948H45.7929V10.004ZM45.7929 14.836H48.0809C48.6889 14.836 49.1582 14.6973 49.4889 14.42C49.8302 14.132 50.0009 13.732 50.0009 13.22C50.0009 12.6973 49.8249 12.2867 49.4729 11.988C49.1209 11.6893 48.6462 11.54 48.0489 11.54H45.7929V14.836ZM53.5186 16.5V5.3H57.6306C58.5266 5.3 59.2626 5.45467 59.8386 5.764C60.4253 6.06267 60.8626 6.47333 61.1506 6.996C61.4386 7.508 61.5826 8.07867 61.5826 8.708C61.5826 9.39067 61.4013 10.0147 61.0386 10.58C60.6866 11.1453 60.132 11.556 59.3746 11.812L61.6946 16.5H59.3426L57.2626 12.084H55.5666V16.5H53.5186ZM55.5666 10.58H57.5026C58.1853 10.58 58.6866 10.4147 59.0066 10.084C59.3266 9.75333 59.4866 9.316 59.4866 8.772C59.4866 8.23867 59.3266 7.812 59.0066 7.492C58.6973 7.172 58.1906 7.012 57.4866 7.012H55.5666V10.58ZM63.1674 16.5V5.3H65.2154V16.5H63.1674ZM67.0661 16.5V5.3H70.8901C72.2021 5.3 73.2795 5.53467 74.1221 6.004C74.9755 6.46267 75.6048 7.11333 76.0101 7.956C76.4261 8.788 76.6341 9.76933 76.6341 10.9C76.6341 12.0307 76.4261 13.0173 76.0101 13.86C75.6048 14.692 74.9755 15.3427 74.1221 15.812C73.2795 16.2707 72.2021 16.5 70.8901 16.5H67.0661ZM69.1141 14.74H70.7941C71.7328 14.74 72.4741 14.5907 73.0181 14.292C73.5621 13.9827 73.9515 13.5453 74.1861 12.98C74.4208 12.404 74.5381 11.7107 74.5381 10.9C74.5381 10.1 74.4208 9.412 74.1861 8.836C73.9515 8.26 73.5621 7.81733 73.0181 7.508C72.4741 7.19867 71.7328 7.044 70.7941 7.044H69.1141V14.74Z" fill="#F59E0B"/>
</svg>
