<svg width="86" height="23" viewBox="0 0 86 23" fill="none" xmlns="http://www.w3.org/2000/svg">
<path fill-rule="evenodd" clip-rule="evenodd" d="M7.74806 4.56811C7.90375 4.4773 8.09625 4.4773 8.25194 4.56811L9.75194 5.44311C9.99046 5.58225 10.071 5.88841 9.93189 6.12694C9.79275 6.36546 9.48659 6.44603 9.24806 6.30689L8 5.57885L6.75194 6.30689C6.51341 6.44603 6.20725 6.36546 6.06811 6.12694C5.92897 5.88841 6.00954 5.58225 6.24806 5.44311L7.74806 4.56811ZM3.93189 7.37306C4.07103 7.61159 3.99046 7.91775 3.75194 8.05689L2.99232 8.5L3.75194 8.94311C3.99046 9.08225 4.07103 9.38841 3.93189 9.62694C3.79275 9.86546 3.48659 9.94603 3.24806 9.80689L2.5 9.37052V10C2.5 10.2761 2.27614 10.5 2 10.5C1.72386 10.5 1.5 10.2761 1.5 10V8.5C1.5 8.32217 1.59446 8.15772 1.74806 8.06811L3.24806 7.19311C3.48659 7.05397 3.79275 7.13454 3.93189 7.37306ZM12.0681 7.37306C12.2073 7.13454 12.5134 7.05397 12.7519 7.19311L14.2519 8.06811C14.4055 8.15772 14.5 8.32217 14.5 8.5V10C14.5 10.2761 14.2761 10.5 14 10.5C13.7239 10.5 13.5 10.2761 13.5 10V9.37052L12.7519 9.80689C12.5134 9.94603 12.2073 9.86546 12.0681 9.62694C11.929 9.38841 12.0095 9.08225 12.2481 8.94311L13.0077 8.5L12.2481 8.05689C12.0095 7.91775 11.929 7.61159 12.0681 7.37306ZM6.06811 10.8731C6.20725 10.6345 6.51341 10.554 6.75194 10.6931L8 11.4211L9.24806 10.6931C9.48659 10.554 9.79275 10.6345 9.93189 10.8731C10.071 11.1116 9.99046 11.4177 9.75194 11.5569L8.5 12.2872V13.5C8.5 13.7761 8.27614 14 8 14C7.72386 14 7.5 13.7761 7.5 13.5V12.2872L6.24806 11.5569C6.00954 11.4177 5.92897 11.1116 6.06811 10.8731ZM2 12.5C2.27614 12.5 2.5 12.7239 2.5 13V14.2128L3.75194 14.9431C3.99046 15.0823 4.07103 15.3884 3.93189 15.6269C3.79275 15.8655 3.48659 15.946 3.24806 15.8069L1.74806 14.9319C1.59446 14.8423 1.5 14.6778 1.5 14.5V13C1.5 12.7239 1.72386 12.5 2 12.5ZM14 12.5C14.2761 12.5 14.5 12.7239 14.5 13V14.5C14.5 14.6778 14.4055 14.8423 14.2519 14.9319L12.7519 15.8069C12.5134 15.946 12.2073 15.8655 12.0681 15.6269C11.929 15.3884 12.0095 15.0823 12.2481 14.9431L13.5 14.2128V13C13.5 12.7239 13.7239 12.5 14 12.5ZM8 16C8.27614 16 8.5 16.2239 8.5 16.5V17.1295L9.24806 16.6931C9.48659 16.554 9.79275 16.6345 9.93189 16.8731C10.071 17.1116 9.99046 17.4177 9.75194 17.5569L8.25194 18.4319C8.09625 18.5227 7.90375 18.5227 7.74806 18.4319L6.24806 17.5569C6.00954 17.4177 5.92897 17.1116 6.06811 16.8731C6.20725 16.6345 6.51341 16.554 6.75194 16.6931L7.5 17.1295V16.5C7.5 16.2239 7.72386 16 8 16Z" fill="#1D77E1" stroke="#1D77E1" stroke-width="0.2" stroke-linecap="round" stroke-linejoin="round"/>
<path d="M26.336 16.5L22.24 5.3H24.432L27.6 14.404L30.784 5.3H32.944L28.848 16.5H26.336ZM33.9555 16.5V5.3H36.0035V16.5H33.9555ZM37.8542 16.5V5.3H41.9662C42.8622 5.3 43.5982 5.45467 44.1743 5.764C44.7609 6.06267 45.1982 6.47333 45.4862 6.996C45.7743 7.508 45.9183 8.07867 45.9183 8.708C45.9183 9.39067 45.7369 10.0147 45.3743 10.58C45.0222 11.1453 44.4676 11.556 43.7102 11.812L46.0303 16.5H43.6782L41.5982 12.084H39.9022V16.5H37.8542ZM39.9022 10.58H41.8382C42.5209 10.58 43.0222 10.4147 43.3422 10.084C43.6622 9.75333 43.8222 9.316 43.8222 8.772C43.8222 8.23867 43.6622 7.812 43.3422 7.492C43.0329 7.172 42.5263 7.012 41.8222 7.012H39.9022V10.58ZM50.111 16.5V6.948H46.847V5.3H55.439V6.948H52.159V16.5H50.111ZM60.9561 16.692C60.1348 16.692 59.3935 16.532 58.7321 16.212C58.0708 15.8813 57.5428 15.3853 57.1481 14.724C56.7641 14.0627 56.5721 13.2253 56.5721 12.212V5.3H58.6201V12.228C58.6201 13.1027 58.8281 13.7533 59.2441 14.18C59.6708 14.6067 60.2575 14.82 61.0041 14.82C61.7401 14.82 62.3215 14.6067 62.7481 14.18C63.1748 13.7533 63.3881 13.1027 63.3881 12.228V5.3H65.4361V12.212C65.4361 13.2253 65.2335 14.0627 64.8281 14.724C64.4228 15.3853 63.8788 15.8813 63.1961 16.212C62.5241 16.532 61.7775 16.692 60.9561 16.692ZM66.0024 16.5L70.0984 5.3H72.4024L76.4984 16.5H74.3224L73.4264 13.908H69.0584L68.1464 16.5H66.0024ZM69.6184 12.308H72.8664L71.2344 7.652L69.6184 12.308ZM77.6211 16.5V5.3H79.6691V14.9H84.6291V16.5H77.6211Z" fill="#1D77E1"/>
</svg>
