<svg width="122" height="24" viewBox="0 0 122 24" fill="none" xmlns="http://www.w3.org/2000/svg">
<g clip-path="url(#clip0_604_616)">
<path d="M22.9863 19.5834V4.48572H29.3383C30.3735 4.48572 31.2608 4.66135 32.0001 5.01262C32.7395 5.36388 33.3042 5.87052 33.694 6.53252C34.0839 7.18101 34.2788 7.97136 34.2788 8.90357C34.2788 9.56557 34.0973 10.2005 33.7344 10.8085C33.3714 11.403 32.7732 11.9029 31.9396 12.3082V10.768C32.7328 11.0787 33.3445 11.4503 33.7747 11.8826C34.2048 12.3149 34.5006 12.7878 34.662 13.3012C34.8233 13.801 34.9039 14.328 34.9039 14.8819C34.9039 16.368 34.4132 17.5231 33.4319 18.3473C32.4505 19.1713 31.086 19.5834 29.3383 19.5834H22.9863ZM26.112 16.8476H29.7013C30.3331 16.8476 30.8373 16.6652 31.2137 16.3004C31.5902 15.9356 31.7784 15.4628 31.7784 14.8819C31.7784 14.2874 31.5902 13.8078 31.2137 13.443C30.8373 13.0782 30.3331 12.8958 29.7013 12.8958H26.112V16.8476ZM26.112 10.16H29.5602C30.0442 10.16 30.4273 10.0249 30.7096 9.75471C31.0053 9.471 31.1532 9.09947 31.1532 8.64012C31.1532 8.18077 31.0053 7.816 30.7096 7.54579C30.4273 7.26208 30.0442 7.12022 29.5602 7.12022H26.112V10.16Z" fill="white"/>
<path d="M40.0937 19.8261C39.3005 19.8261 38.6149 19.6977 38.0368 19.441C37.4588 19.1843 37.0151 18.8195 36.706 18.3467C36.3968 17.8603 36.2422 17.2861 36.2422 16.6241C36.2422 16.0027 36.3833 15.4555 36.6657 14.9826C36.9479 14.4962 37.3781 14.0909 37.9562 13.7667C38.5477 13.4425 39.2803 13.2127 40.1542 13.0777L43.5218 12.5305V14.7597L40.6986 15.2664C40.2685 15.3474 39.9391 15.4892 39.7106 15.6919C39.482 15.8811 39.3677 16.158 39.3677 16.5228C39.3677 16.8605 39.4954 17.124 39.7508 17.3131C40.0064 17.5023 40.3223 17.5968 40.6986 17.5968C41.1961 17.5968 41.6329 17.4887 42.0094 17.2726C42.3858 17.0564 42.6749 16.766 42.8765 16.4012C43.0915 16.0229 43.1992 15.6108 43.1992 15.165V12.2874C43.1992 11.8685 43.0311 11.5172 42.695 11.2335C42.3723 10.9499 41.9287 10.808 41.3641 10.808C40.8263 10.808 40.3491 10.9565 39.9324 11.2538C39.5291 11.551 39.2333 11.9428 39.0451 12.4292L36.6253 11.274C36.8404 10.6525 37.1832 10.1189 37.6537 9.67309C38.1243 9.22726 38.6888 8.88274 39.3475 8.63956C40.0064 8.39637 40.7256 8.27478 41.5052 8.27478C42.4328 8.27478 43.2529 8.44366 43.9654 8.78142C44.6779 9.11917 45.229 9.59203 45.619 10.2C46.0223 10.7944 46.2239 11.4902 46.2239 12.2874V19.5829H43.4008V17.7995L44.0864 17.6779C43.7637 18.1643 43.4075 18.5695 43.0177 18.8938C42.6278 19.2046 42.1909 19.4342 41.7069 19.5829C41.2229 19.745 40.6852 19.8261 40.0937 19.8261Z" fill="white"/>
<path d="M53.8479 19.8261C52.7455 19.8261 51.7507 19.5761 50.8634 19.0762C49.9896 18.5628 49.2906 17.8671 48.7663 16.9888C48.2554 16.1107 48 15.1245 48 14.0301C48 12.9358 48.2554 11.9563 48.7663 11.0916C49.2771 10.2135 49.9761 9.52448 50.8634 9.0246C51.7507 8.52472 52.7455 8.27478 53.8479 8.27478C54.6679 8.27478 55.4275 8.41664 56.1265 8.70035C56.8256 8.98407 57.4238 9.38262 57.9213 9.89601C58.4187 10.3959 58.7749 10.9903 58.9901 11.6794L56.3686 12.8142C56.1804 12.2603 55.8576 11.8212 55.4006 11.497C54.957 11.1727 54.4394 11.0106 53.8479 11.0106C53.3236 11.0106 52.853 11.1389 52.4364 11.3956C52.0331 11.6523 51.7104 12.0103 51.4684 12.4697C51.2399 12.9291 51.1256 13.4559 51.1256 14.0504C51.1256 14.6449 51.2399 15.1717 51.4684 15.6311C51.7104 16.0904 52.0331 16.4484 52.4364 16.7052C52.853 16.9619 53.3236 17.0902 53.8479 17.0902C54.4528 17.0902 54.9772 16.928 55.4208 16.6039C55.8644 16.2796 56.1804 15.8405 56.3686 15.2866L58.9901 16.4417C58.7884 17.0902 58.4388 17.6711 57.9414 18.1846C57.444 18.6979 56.8458 19.1033 56.1467 19.4005C55.4477 19.6842 54.6814 19.8261 53.8479 19.8261Z" fill="white"/>
<path d="M60.7715 19.5835V4.24255H63.7963V14.0712L62.667 13.7065L67.5268 8.51854H71.2573L67.2647 12.9769L71.2371 19.5835H67.8091L64.4818 13.9699L66.2362 13.5241L62.8686 17.2123L63.7963 15.4492V19.5835H60.7715Z" fill="white"/>
<path d="M72.5859 23.6359V8.51796H75.4091V10.6256L75.1469 10.0176C75.5099 9.46368 76.0006 9.03811 76.619 8.74088C77.2509 8.43015 77.9701 8.27478 78.7767 8.27478C79.8252 8.27478 80.773 8.53148 81.6199 9.04487C82.4669 9.55825 83.1391 10.254 83.6365 11.1322C84.1339 11.9968 84.3826 12.9695 84.3826 14.0504C84.3826 15.1177 84.1339 16.0904 83.6365 16.9686C83.1525 17.8468 82.487 18.5426 81.6401 19.0559C80.7932 19.5693 79.832 19.8261 78.7565 19.8261C78.0036 19.8261 77.3046 19.6909 76.6593 19.4207C76.0275 19.137 75.5167 18.725 75.1267 18.1846L75.6107 17.5563V23.6359H72.5859ZM78.3935 17.0902C78.9581 17.0902 79.4556 16.9619 79.8857 16.7052C80.316 16.4484 80.6521 16.0904 80.894 15.6311C81.136 15.1717 81.257 14.6449 81.257 14.0504C81.257 13.4559 81.136 12.9358 80.894 12.4899C80.6521 12.0306 80.316 11.6726 79.8857 11.4159C79.4556 11.1457 78.9581 11.0106 78.3935 11.0106C77.8558 11.0106 77.3718 11.1389 76.9416 11.3956C76.5248 11.6523 76.1955 12.0103 75.9535 12.4697C75.725 12.9291 75.6107 13.4559 75.6107 14.0504C75.6107 14.6449 75.725 15.1717 75.9535 15.6311C76.1955 16.0904 76.5248 16.4484 76.9416 16.7052C77.3718 16.9619 77.8558 17.0902 78.3935 17.0902Z" fill="white"/>
<path d="M89.5625 19.8261C88.7694 19.8261 88.0837 19.6977 87.5057 19.441C86.9275 19.1843 86.4839 18.8195 86.1747 18.3467C85.8655 17.8603 85.7109 17.2861 85.7109 16.6241C85.7109 16.0027 85.8521 15.4555 86.1344 14.9826C86.4167 14.4962 86.8469 14.0909 87.425 13.7667C88.0165 13.4425 88.7492 13.2127 89.623 13.0777L92.9906 12.5305V14.7597L90.1675 15.2664C89.7372 15.3474 89.4079 15.4892 89.1794 15.6919C88.9508 15.8811 88.8366 16.158 88.8366 16.5228C88.8366 16.8605 88.9643 17.124 89.2197 17.3131C89.4751 17.5023 89.791 17.5968 90.1675 17.5968C90.6648 17.5968 91.1018 17.4887 91.4782 17.2726C91.8546 17.0564 92.1436 16.766 92.3453 16.4012C92.5604 16.0229 92.6679 15.6108 92.6679 15.165V12.2874C92.6679 11.8685 92.4999 11.5172 92.1638 11.2335C91.8412 10.9499 91.3975 10.808 90.8329 10.808C90.2952 10.808 89.8179 10.9565 89.4011 11.2538C88.9978 11.551 88.7021 11.9428 88.5138 12.4292L86.0941 11.274C86.3091 10.6525 86.6519 10.1189 87.1225 9.67309C87.593 9.22726 88.1577 8.88274 88.8164 8.63956C89.4751 8.39637 90.1943 8.27478 90.9741 8.27478C91.9017 8.27478 92.7217 8.44366 93.4342 8.78142C94.1467 9.11917 94.6979 9.59203 95.0877 10.2C95.491 10.7944 95.6927 11.4902 95.6927 12.2874V19.5829H92.8695V17.7995L93.5552 17.6779C93.2326 18.1643 92.8763 18.5695 92.4864 18.8938C92.0966 19.2046 91.6596 19.4342 91.1757 19.5829C90.6917 19.745 90.154 19.8261 89.5625 19.8261Z" fill="white"/>
<path d="M103.316 19.8261C102.215 19.8261 101.22 19.5761 100.332 19.0762C99.4588 18.5628 98.7596 17.8671 98.235 16.9888C97.7242 16.1107 97.4688 15.1245 97.4688 14.0301C97.4688 12.9358 97.7242 11.9563 98.235 11.0916C98.746 10.2135 99.4452 9.52448 100.332 9.0246C101.22 8.52472 102.215 8.27478 103.316 8.27478C104.137 8.27478 104.896 8.41664 105.595 8.70035C106.294 8.98407 106.892 9.38262 107.39 9.89601C107.887 10.3959 108.243 10.9903 108.459 11.6794L105.837 12.8142C105.649 12.2603 105.326 11.8212 104.87 11.497C104.426 11.1727 103.908 11.0106 103.316 11.0106C102.793 11.0106 102.322 11.1389 101.905 11.3956C101.502 11.6523 101.179 12.0103 100.938 12.4697C100.709 12.9291 100.594 13.4559 100.594 14.0504C100.594 14.6449 100.709 15.1717 100.938 15.6311C101.179 16.0904 101.502 16.4484 101.905 16.7052C102.322 16.9619 102.793 17.0902 103.316 17.0902C103.921 17.0902 104.446 16.928 104.89 16.6039C105.333 16.2796 105.649 15.8405 105.837 15.2866L108.459 16.4417C108.257 17.0902 107.908 17.6711 107.41 18.1846C106.913 18.6979 106.315 19.1033 105.615 19.4005C104.916 19.6842 104.15 19.8261 103.316 19.8261Z" fill="white"/>
<path d="M110.238 19.5833V4.24243H113.263V14.0711L112.134 13.7064L116.994 8.51842H120.725L116.731 12.9768L120.704 19.5833H117.276L113.948 13.9698L115.703 13.524L112.336 17.2122L113.263 15.4491V19.5833H110.238Z" fill="white"/>
<mask id="mask0_604_616" style="mask-type:luminance" maskUnits="userSpaceOnUse" x="0" y="0" width="15" height="21">
<path d="M14.9258 0.363647H0.925781V20.7273H14.9258V0.363647Z" fill="white"/>
</mask>
<g mask="url(#mask0_604_616)">
<path fill-rule="evenodd" clip-rule="evenodd" d="M9.25198 1.9648C9.99213 1.9648 10.6864 2.06402 11.3292 2.24804C10.6998 0.781317 9.3932 0.363647 7.93899 0.363647C6.48193 0.363647 5.173 0.782959 4.5451 2.25668C5.18318 2.06619 5.87445 1.9648 6.61207 1.9648H9.25198ZM6.44278 3.43733C2.92823 3.43733 0.925781 6.20219 0.925781 9.61282V13.1163C0.925781 13.4575 1.21069 13.7272 1.56214 13.7272H14.2894C14.6409 13.7272 14.9258 13.4575 14.9258 13.1163V9.61282C14.9258 6.20219 12.5972 3.43733 9.08268 3.43733H6.44278ZM7.92081 9.64312C9.1509 9.64312 10.1481 8.64594 10.1481 7.41585C10.1481 6.18576 9.1509 5.18858 7.92081 5.18858C6.69072 5.18858 5.69354 6.18576 5.69354 7.41585C5.69354 8.64594 6.69072 9.64312 7.92081 9.64312ZM0.925781 15.7866C0.925781 15.4455 1.21069 15.1691 1.56214 15.1691H14.2894C14.6409 15.1691 14.9258 15.4455 14.9258 15.7866V19.4919C14.9258 20.174 14.356 20.727 13.6531 20.727H2.19851C1.4956 20.727 0.925781 20.174 0.925781 19.4919V15.7866Z" fill="#E33E3F"/>
</g>
</g>
<defs>
<clipPath id="clip0_604_616">
<rect width="120.242" height="23.2727" fill="white" transform="translate(0.925781 0.363647)"/>
</clipPath>
</defs>
</svg>
