<svg width="210" height="18" viewBox="0 0 210 18" fill="none" xmlns="http://www.w3.org/2000/svg">
<g style="mix-blend-mode:luminosity">
<g clip-path="url(#clip0_604_615)">
<path d="M20.1506 13.6819L16.9312 17.0484C16.8612 17.1215 16.7766 17.1798 16.6825 17.2198C16.5884 17.2596 16.4869 17.2802 16.3843 17.2802H1.118C1.04515 17.2802 0.973898 17.2594 0.912986 17.2205C0.852072 17.1816 0.804161 17.1261 0.775125 17.061C0.746091 16.9959 0.737203 16.924 0.749556 16.8539C0.761908 16.784 0.79496 16.719 0.844654 16.6671L4.06408 13.3007C4.13405 13.2275 4.2187 13.1692 4.31279 13.1293C4.40687 13.0894 4.50838 13.0689 4.61097 13.0689H19.8773C19.9501 13.0689 20.0214 13.0896 20.0823 13.1285C20.1431 13.1674 20.1911 13.2229 20.2202 13.2881C20.2492 13.3532 20.258 13.4251 20.2457 13.4951C20.2334 13.5651 20.2003 13.63 20.1506 13.6819ZM16.9312 6.90266C16.8612 6.82951 16.7766 6.77118 16.6825 6.7313C16.5884 6.69141 16.4869 6.67083 16.3843 6.67083H1.118C1.04515 6.67083 0.973898 6.69158 0.912986 6.73052C0.852072 6.76945 0.804161 6.82489 0.775125 6.89002C0.746091 6.95514 0.737203 7.02711 0.749556 7.09708C0.761908 7.16706 0.79496 7.232 0.844654 7.28391L4.06408 10.6504C4.13405 10.7235 4.2187 10.7818 4.31279 10.8217C4.40687 10.8616 4.50838 10.8822 4.61097 10.8822H19.8773C19.95 10.8821 20.0211 10.8613 20.0819 10.8224C20.1426 10.7834 20.1905 10.7281 20.2195 10.6631C20.2485 10.5981 20.2574 10.5263 20.2452 10.4564C20.233 10.3865 20.2001 10.3216 20.1506 10.2697L16.9312 6.90266ZM1.11904 4.48417H16.3854C16.488 4.48417 16.5894 4.46359 16.6836 4.4237C16.7776 4.38382 16.8623 4.3255 16.9322 4.25235L20.1517 0.885905C20.2014 0.83399 20.2344 0.769046 20.2467 0.699069C20.2591 0.629092 20.2502 0.557125 20.2212 0.492003C20.1921 0.426882 20.1443 0.371453 20.0833 0.332515C20.0224 0.293577 19.9511 0.27283 19.8784 0.272827H4.61201C4.5094 0.272829 4.40791 0.293411 4.31383 0.333293C4.21974 0.373176 4.13509 0.431511 4.06511 0.504657L0.845694 3.87109C0.79606 3.92294 0.763027 3.9878 0.75064 4.05768C0.738252 4.12756 0.74705 4.19945 0.775956 4.26454C0.804863 4.32962 0.852617 4.38506 0.913372 4.42407C0.974128 4.46309 1.04524 4.48397 1.118 4.48417H1.11904Z" fill="url(#paint0_linear_604_615)"/>
</g>
<g clip-path="url(#clip1_604_615)">
<path d="M27.8223 17.592H31.1653V11.1187H43.7798V7.77521H31.1653V4.64554H43.7798V1.302H27.8223V17.592Z" fill="white"/>
<path d="M60.191 1.302H50.233C49.3053 1.30276 48.4158 1.6716 47.7599 2.32755C47.1039 2.9835 46.7351 3.87294 46.7344 4.8006V14.0948C46.7353 15.0221 47.1042 15.9111 47.7599 16.5667C48.4157 17.2223 49.3047 17.5911 50.232 17.592H60.1901C61.1173 17.5909 62.0062 17.2222 62.6618 16.5666C63.3175 15.9109 63.6862 15.022 63.6873 14.0948V4.8006C63.6865 3.87335 63.3179 2.98427 62.6625 2.32839C62.0071 1.6725 61.1182 1.30338 60.191 1.302ZM60.3446 4.64554V14.2484H50.0774V4.64554H60.3446Z" fill="white"/>
<path d="M80.2568 11.4386C80.2559 12.1835 79.9597 12.8977 79.4328 13.4244C78.906 13.9512 78.1917 14.2474 77.4468 14.2481H72.7978C72.0531 14.2469 71.3393 13.9505 70.8128 13.4238C70.2863 12.8972 69.9902 12.1833 69.9891 11.4386V1.30127H66.6465V12.1024C66.6481 13.5574 67.2268 14.9524 68.2554 15.9813C69.2842 17.0103 70.6789 17.5892 72.1338 17.5913H78.1088C79.5644 17.5901 80.9601 17.0115 81.9897 15.9825C83.0192 14.9535 83.5985 13.5581 83.6004 12.1024V1.30127H80.2568V11.4386Z" fill="white"/>
<path d="M100.174 14.2477H99.5525L93.2799 2.45214C93.0954 2.10426 92.8195 1.81328 92.4819 1.6105C92.1444 1.40771 91.7579 1.3008 91.3641 1.30127H88.7319C88.1567 1.30203 87.6052 1.53089 87.1985 1.93769C86.7919 2.34447 86.5631 2.89595 86.5625 3.47117V17.5913H89.905V4.64576H90.6595L96.9297 16.4409C97.114 16.7889 97.3899 17.0801 97.7275 17.2829C98.0651 17.4858 98.4516 17.5928 98.8455 17.5922H101.346C101.921 17.5917 102.473 17.363 102.88 16.9563C103.287 16.5496 103.516 15.998 103.516 15.4227V1.30127H100.173L100.174 14.2477Z" fill="white"/>
<path d="M117.943 1.302H106.479V17.592H117.943C119.398 17.5908 120.794 17.0123 121.824 15.9833C122.853 14.9543 123.432 13.5588 123.434 12.1031V6.7922C123.433 5.33633 122.854 3.94054 121.824 2.91121C120.794 1.88188 119.398 1.30313 117.943 1.302ZM109.822 4.64554H117.279C118.024 4.64641 118.738 4.94271 119.265 5.46942C119.792 5.99612 120.088 6.71025 120.089 7.45513V11.4393C120.088 12.1842 119.792 12.8983 119.265 13.425C118.738 13.9517 118.024 14.2481 117.279 14.2489H109.822V4.64554Z" fill="white"/>
<path d="M140.516 1.30127H129.228C128.477 1.30215 127.756 1.601 127.225 2.13226C126.694 2.66352 126.395 3.3838 126.395 4.13505V17.5913H129.738V12.2803H140.005V17.5913H143.348V4.13599C143.348 3.38478 143.049 2.66448 142.518 2.13307C141.987 1.60166 141.267 1.30253 140.516 1.30127ZM140.006 4.6448V8.93673H129.739V4.6448H140.006Z" fill="white"/>
<path d="M146.312 4.64554H152.786V17.592H156.129V4.64554H162.602V1.302H146.312V4.64554Z" fill="white"/>
<path d="M169.076 1.302H165.732V17.592H169.076V1.302Z" fill="white"/>
<path d="M185.85 1.302H175.892C174.964 1.30276 174.074 1.6716 173.419 2.32755C172.763 2.9835 172.394 3.87294 172.393 4.8006V14.0948C172.394 15.0221 172.763 15.9111 173.419 16.5667C174.074 17.2223 174.963 17.5911 175.89 17.592H185.849C186.776 17.5909 187.664 17.2222 188.32 16.5666C188.976 15.9109 189.344 15.022 189.346 14.0948V4.8006C189.346 3.87335 188.977 2.98427 188.322 2.32839C187.665 1.6725 186.776 1.30338 185.85 1.302ZM186.004 4.64554V14.2484H175.736V4.64554H186.004Z" fill="white"/>
<path d="M205.921 1.30127V14.2467H205.299L199.026 2.45262C198.842 2.10455 198.567 1.81339 198.229 1.6105C197.892 1.40761 197.504 1.30069 197.111 1.30127H194.479C193.903 1.30202 193.352 1.53089 192.945 1.93769C192.539 2.34447 192.31 2.89595 192.309 3.47117V17.5913H195.652V4.64576H196.407L202.677 16.4409C202.86 16.7888 203.136 17.0798 203.475 17.2827C203.812 17.4855 204.199 17.5925 204.592 17.5922H207.093C207.669 17.5915 208.22 17.3628 208.626 16.9561C209.034 16.5495 209.262 15.998 209.263 15.4227V1.30127H205.921Z" fill="white"/>
</g>
</g>
<defs>
<linearGradient id="paint0_linear_604_615" x1="-0.466375" y1="20.511" x2="21.6968" y2="-4.45241" gradientUnits="userSpaceOnUse">
<stop offset="0.12" stop-color="#E5304F"/>
<stop offset="0.466" stop-color="#FF8A4D"/>
<stop offset="0.876" stop-color="#F2FF00"/>
</linearGradient>
<clipPath id="clip0_604_615">
<rect width="20.5348" height="17.4545" fill="white" transform="translate(0.306641 0.272705)"/>
</clipPath>
<clipPath id="clip1_604_615">
<rect width="181.527" height="17.4545" fill="white" transform="translate(27.8223 0.272827)"/>
</clipPath>
</defs>
</svg>
