<svg width="95" height="24" viewBox="0 0 95 24" fill="none" xmlns="http://www.w3.org/2000/svg">
<g clip-path="url(#clip0_604_631)">
<path d="M15.6182 17.2864H9.24414V23.6335H15.6182V17.2864Z" fill="#7CE7FE"/>
<path d="M20.0204 8.82654H9.24609V15.1736H21.9914V8.82654H20.0204Z" fill="#3EC7E3"/>
<path d="M28.3634 0.36377H9.24414V6.71087H28.3634V0.36377Z" fill="#00A2C7"/>
<path d="M7.12012 8.82654H0.746094V15.1736H7.12012V8.82654Z" fill="#3EC7E3"/>
<path d="M34.7344 23.6364H39.677V14.0211H49.1822V9.96504H39.677V4.41967H50.2082V0.363647H34.7344V23.6364Z" fill="white"/>
<path d="M52.6426 4.41979H59.7966V23.6365H64.6806V4.41979H71.8346V0.36377H52.6426V4.41979Z" fill="white"/>
<path d="M79.63 0.363647H74.0276L81.204 12L73.8906 23.6364H79.5518L84.3435 15.6914H84.5252L89.3197 23.6364H95.0004L87.7094 12L94.841 0.363647H89.261L84.5252 8.29475H84.3435L79.63 0.363647Z" fill="white"/>
</g>
<defs>
<clipPath id="clip0_604_631">
<rect width="94.2545" height="23.2727" fill="white" transform="translate(0.746094 0.363647)"/>
</clipPath>
</defs>
</svg>
