<svg width="95" height="32" viewBox="0 0 95 32" fill="none" xmlns="http://www.w3.org/2000/svg">
<g clip-path="url(#clip0_604_607)">
<path d="M36.6842 18.6566V16.4961H41.8102C42.5938 16.4961 43.2056 16.2736 43.6444 15.8289C44.0831 15.384 44.3025 14.7977 44.3025 14.0727C44.3025 13.3477 44.0831 12.7499 43.6444 12.3167C43.2056 11.8834 42.5938 11.6668 41.8102 11.6668H35.0521V22.2078H32.8398V9.43262H41.8102C42.5476 9.43262 43.2056 9.54093 43.7858 9.75756C44.3645 9.97418 44.8536 10.2789 45.2519 10.6717C45.6503 11.0645 45.9547 11.5411 46.1654 12.1029C46.3761 12.6647 46.4815 13.2972 46.4815 14.0006C46.4815 14.7039 46.3761 15.3205 46.1654 15.8895C45.9547 16.4571 45.6503 16.9467 45.2519 17.3568C44.8536 17.767 44.3659 18.0862 43.7858 18.3143C43.2071 18.5425 42.5476 18.6566 41.8102 18.6566H36.6842Z" fill="white"/>
<path d="M53.7403 22.2049V17.3554L46.9648 9.43262H49.9665L54.9352 15.3176L59.9195 9.43262H62.7639L55.9698 17.3554V22.2049H53.7403Z" fill="white"/>
<path d="M70.4511 22.2049V11.6639H64.5801V9.43262H78.5601V11.6639H72.6808V22.2049H70.4511Z" fill="white"/>
<path d="M92.5078 9.43262H94.7288V22.2049H92.5078V9.43262Z" fill="white"/>
<path d="M82.9241 22.2049V16.6767H91.1866V14.6995H82.9241V9.43262H80.7031V22.2049H82.9241Z" fill="white"/>
<path d="M16.8846 12.7719C16.8846 14.5353 15.4558 15.9649 13.6939 15.9649V19.1581C17.2179 19.1581 20.0752 16.2986 20.0752 12.7719C20.0752 9.24522 17.2179 6.38574 13.6939 6.38574C12.5321 6.38574 11.4412 6.69625 10.5032 7.2407C8.59542 8.34405 7.3125 10.4078 7.3125 12.7719V28.7373L10.1814 31.6083L10.5032 31.9304V12.7719C10.5032 11.0086 11.9319 9.57883 13.6939 9.57883C15.4558 9.57883 16.8846 11.0086 16.8846 12.7719Z" fill="white"/>
<path d="M13.6944 0C11.3696 0 9.19049 0.622442 7.31302 1.70991C6.11092 2.40456 5.03437 3.28984 4.12233 4.32532C2.13663 6.5768 0.931641 9.53448 0.931641 12.7723V22.3515L4.12233 25.5447V12.7723C4.12233 9.93596 5.35474 7.38698 7.31302 5.6323C8.23372 4.80912 9.3146 4.15923 10.5037 3.74043C11.5009 3.38516 12.576 3.19308 13.6944 3.19308C18.9805 3.19308 23.2665 7.4823 23.2665 12.7723C23.2665 18.0624 18.9805 22.3515 13.6944 22.3515V25.5447C20.7439 25.5447 26.4572 19.8257 26.4572 12.7723C26.4572 5.71896 20.7439 0 13.6944 0Z" fill="white"/>
</g>
<defs>
<clipPath id="clip0_604_607">
<rect width="93.7971" height="32" fill="white" transform="translate(0.931641)"/>
</clipPath>
</defs>
</svg>
