<svg width="182" height="18" viewBox="0 0 182 18" fill="none" xmlns="http://www.w3.org/2000/svg">
<g clip-path="url(#clip0_1_19)">
<path d="M138.191 0H129.658C126.379 0 123.722 2.66348 123.722 5.95186V11.1359C123.722 14.4243 126.379 17.0878 129.658 17.0878H138.394V17.0789C141.578 16.9718 144.128 14.3559 144.128 11.1359V5.95188C144.128 2.66348 141.472 0 138.191 0ZM137.271 14.2488H130.578V2.83905H137.271V14.2488ZM43.3995 0H34.8662C31.5864 0 28.93 2.66348 28.93 5.95186V11.1359C28.93 14.4243 31.5864 17.0878 34.8662 17.0878H43.6013V17.0789C46.7861 16.9718 49.3356 14.3559 49.3356 11.1359V5.95188C49.3356 2.66348 46.6792 0 43.3995 0ZM42.4793 14.2488H35.7863V2.83905H42.4793V14.2488ZM91.159 2.97593H91.162L86.2053 11.5823V0H82.7712C80.649 0 78.6901 1.13383 77.6304 2.97593L70.4477 15.4481L67.2866 9.96046C69.5573 9.93366 71.3915 8.07966 71.3915 5.7971V4.1663C71.3915 1.8659 69.5306 0 67.2362 0H50.986V17.0878H57.8422V9.96343H59.3738L63.4756 17.0878H72.6708L79.349 5.48762V17.0878H86.2053V17.0819L92.8538 5.53524V17.0878H99.7101V0H96.2998C94.1776 0 92.2187 1.13383 91.159 2.97593ZM64.5353 7.12437H57.8422V2.83905H64.5353V7.12437ZM115.173 0H122.03V17.0878H115.173V9.96343H108.481V17.0878H101.625V0H108.481V7.12439H115.173V0ZM152.676 14.2488H161.527V17.0878H151.756C148.476 17.0878 145.819 14.4243 145.819 11.1359V0H152.676V14.2488ZM170.146 2.83903V7.12437H179.528V9.96343H170.146V14.2488H182V17.0878H163.289V0H182V2.83905L170.146 2.83903ZM30.2093 0L22.0826 14.1119C21.023 15.954 19.0641 17.0878 16.9419 17.0878H13.5078V5.50548L8.55107 14.1119C7.49147 15.954 5.53253 17.0878 3.41033 17.0878H0V0H6.85927V11.5526L13.5078 0.00594028V0H20.3641V11.6002L27.0423 0H30.2093Z" fill="white"/>
</g>
<defs>
<clipPath id="clip0_1_19">
<rect width="182" height="17.0878" fill="white"/>
</clipPath>
</defs>
</svg>
