<svg width="183" height="32" viewBox="0 0 183 32" fill="none" xmlns="http://www.w3.org/2000/svg">
<g clip-path="url(#clip0_604_594)">
<path d="M59.1471 9.82349L54.9774 21.5236C54.9583 21.5802 54.9207 21.6287 54.8706 21.6616C54.8205 21.6944 54.7607 21.7096 54.7008 21.705H54.3849C54.3249 21.7073 54.2654 21.6912 54.215 21.6586C54.1646 21.6262 54.1254 21.579 54.1031 21.5236L50.9771 13.3179L47.8565 21.5236C47.8357 21.5792 47.7977 21.6265 47.7479 21.6592C47.6982 21.6918 47.6394 21.7077 47.5797 21.705H47.2587C47.1991 21.7083 47.1399 21.6924 47.0901 21.6598C47.0403 21.6271 47.0024 21.5794 46.9821 21.5236L42.8125 9.8276C42.7485 9.64626 42.8177 9.53358 42.9953 9.53358H44.2856C44.3464 9.52748 44.4075 9.54213 44.4586 9.57509C44.5099 9.60805 44.5484 9.65738 44.5675 9.71491L47.5396 18.5732L50.5612 10.4607C50.5829 10.4048 50.6218 10.3572 50.6725 10.3246C50.723 10.2921 50.7828 10.2762 50.843 10.2794H51.1145C51.1741 10.2764 51.233 10.2924 51.2828 10.325C51.3327 10.3576 51.3705 10.4052 51.3911 10.4607L54.5026 18.5732L57.4055 9.71491C57.4246 9.65738 57.4631 9.60805 57.5144 9.57509C57.5655 9.54213 57.6266 9.52748 57.6874 9.53358H58.9582C59.1408 9.53358 59.2101 9.64626 59.1461 9.82349" fill="white"/>
<path d="M77.2933 15.5221C77.2818 16.7271 76.9111 17.9018 76.228 18.8982C75.5449 19.8945 74.5799 20.6679 73.4548 21.1212C72.3295 21.5743 71.0942 21.687 69.9047 21.4449C68.7151 21.2027 67.6243 20.6167 66.7697 19.7604C65.9152 18.9043 65.335 17.8163 65.1023 16.6335C64.8696 15.4508 64.9948 14.2261 65.4622 13.1139C65.9295 12.0016 66.7181 11.0514 67.7287 10.3831C68.7391 9.71474 69.9263 9.35808 71.1407 9.35802C71.9568 9.34663 72.7668 9.49873 73.5224 9.80521C74.278 10.1117 74.9634 10.5663 75.5378 11.1417C76.1122 11.7172 76.5637 12.4017 76.8653 13.1544C77.1671 13.907 77.3126 14.7123 77.2933 15.5221ZM75.5869 15.5221C75.5869 12.6854 73.7225 10.7318 71.1407 10.7318C68.5588 10.7318 66.6944 12.6854 66.6944 15.5221C66.6944 18.3587 68.5588 20.3124 71.1407 20.3124C73.7225 20.3124 75.5869 18.3587 75.5869 15.5221Z" fill="white"/>
<path d="M93.5862 21.0243C93.6255 21.0694 93.6501 21.1254 93.6566 21.1847C93.6634 21.2441 93.6517 21.304 93.6232 21.3566C93.5948 21.4092 93.551 21.452 93.4975 21.4793C93.4442 21.5066 93.3835 21.5173 93.3239 21.5099H92.1616C92.1237 21.5087 92.0867 21.4983 92.054 21.4796C92.0211 21.4608 91.9937 21.4343 91.9736 21.4023L89.0564 17.0341H85.9211V21.2651C85.9204 21.33 85.8939 21.3921 85.8476 21.438C85.8014 21.484 85.7389 21.5101 85.6734 21.5109H84.5378C84.4725 21.5099 84.4103 21.4836 84.3642 21.4377C84.3181 21.3918 84.2919 21.3298 84.291 21.2651V9.78004C84.2922 9.71534 84.3185 9.65356 84.3645 9.60771C84.4105 9.56185 84.4726 9.53549 84.5378 9.53418H89.0036C92.1296 9.53418 93.6729 11.1641 93.6729 13.2836C93.6919 14.1259 93.4068 14.9471 92.8688 15.5988C92.3309 16.2506 91.5759 16.69 90.7401 16.8374L93.5862 21.0243ZM88.6847 15.6603C91.1427 15.6603 91.9685 14.6491 91.9685 13.2847C91.9685 11.9201 91.1427 10.909 88.6847 10.909H85.9201V15.6603H88.6847Z" fill="white"/>
<path d="M112.794 9.34134H113.164C113.197 9.33924 113.231 9.34416 113.262 9.35576C113.293 9.36738 113.321 9.38542 113.344 9.40869C113.368 9.43195 113.386 9.4599 113.397 9.49069C113.409 9.52148 113.414 9.55438 113.412 9.58721V21.2658C113.414 21.2987 113.409 21.3315 113.397 21.3624C113.386 21.3932 113.368 21.4211 113.344 21.4444C113.321 21.4676 113.293 21.4857 113.262 21.4972C113.231 21.5089 113.197 21.5138 113.164 21.5117H112.029C111.996 21.5138 111.962 21.5089 111.931 21.4972C111.9 21.4857 111.872 21.4676 111.849 21.4444C111.825 21.4211 111.807 21.3932 111.796 21.3624C111.784 21.3315 111.779 21.2987 111.781 21.2658V12.975L107.206 19.5469C107.191 19.5793 107.167 19.6069 107.136 19.6262C107.106 19.6455 107.071 19.6557 107.035 19.6557C106.999 19.6557 106.964 19.6455 106.933 19.6262C106.903 19.6069 106.879 19.5793 106.864 19.5469L102.29 12.975V21.2648C102.292 21.2976 102.287 21.3305 102.275 21.3614C102.264 21.3922 102.245 21.4201 102.222 21.4433C102.199 21.4666 102.17 21.4847 102.139 21.4962C102.108 21.5079 102.075 21.5127 102.042 21.5107H100.906C100.873 21.5127 100.84 21.5079 100.809 21.4962C100.778 21.4847 100.75 21.4666 100.727 21.4433C100.703 21.4201 100.685 21.3922 100.673 21.3614C100.661 21.3305 100.657 21.2976 100.659 21.2648V9.58619C100.657 9.55336 100.661 9.52045 100.673 9.48967C100.685 9.45888 100.703 9.43093 100.727 9.40766C100.75 9.38439 100.778 9.36636 100.809 9.35474C100.84 9.34314 100.873 9.33821 100.906 9.34032H101.273C101.335 9.34055 101.395 9.35592 101.449 9.38506C101.503 9.41421 101.549 9.4562 101.583 9.5073L107.033 17.0605L112.488 9.5073C112.52 9.45645 112.564 9.41447 112.617 9.38528C112.67 9.35607 112.729 9.34061 112.79 9.34032" fill="white"/>
<path d="M131.765 9.78004V21.2641C131.764 21.329 131.737 21.3908 131.691 21.4366C131.645 21.4825 131.582 21.5088 131.517 21.5099H130.381C130.316 21.5088 130.254 21.4825 130.207 21.4366C130.161 21.3908 130.135 21.329 130.134 21.2641V16.0322H122.621V21.2641C122.62 21.329 122.594 21.3908 122.548 21.4366C122.501 21.4825 122.439 21.5088 122.374 21.5099H121.238C121.173 21.5088 121.11 21.4825 121.064 21.4366C121.018 21.3908 120.991 21.329 120.99 21.2641V9.78004C120.991 9.71516 121.018 9.65324 121.064 9.60735C121.11 9.56147 121.173 9.53523 121.238 9.53418H122.374C122.439 9.53523 122.501 9.56147 122.548 9.60735C122.594 9.65324 122.62 9.71516 122.621 9.78004V14.6585H130.134V9.78004C130.135 9.71516 130.161 9.65324 130.207 9.60735C130.254 9.56147 130.316 9.53523 130.381 9.53418H131.517C131.582 9.53523 131.645 9.56147 131.691 9.60735C131.737 9.65324 131.764 9.71516 131.765 9.78004Z" fill="white"/>
<path d="M151.069 15.5221C151.057 16.7271 150.686 17.9018 150.003 18.8982C149.321 19.8945 148.355 20.6679 147.23 21.1212C146.105 21.5743 144.87 21.687 143.68 21.4449C142.491 21.2027 141.4 20.6167 140.545 19.7604C139.691 18.9043 139.11 17.8163 138.878 16.6335C138.645 15.4508 138.77 14.2261 139.238 13.1139C139.705 12.0016 140.494 11.0514 141.504 10.3831C142.514 9.71474 143.702 9.35808 144.916 9.35802C145.732 9.34663 146.542 9.49873 147.297 9.80521C148.053 10.1117 148.739 10.5663 149.314 11.1417C149.888 11.7172 150.339 12.4017 150.64 13.1544C150.943 13.907 151.088 14.7123 151.069 15.5221ZM149.362 15.5221C149.362 12.6854 147.497 10.7318 144.916 10.7318C142.334 10.7318 140.47 12.6854 140.47 15.5221C140.47 18.3587 142.334 20.3124 144.916 20.3124C147.497 20.3124 149.362 18.3587 149.362 15.5221Z" fill="white"/>
<path d="M166.611 20.3809V21.2641C166.614 21.2968 166.608 21.3298 166.596 21.3605C166.585 21.3913 166.567 21.4193 166.544 21.4425C166.52 21.4659 166.491 21.4838 166.46 21.4955C166.43 21.5071 166.396 21.512 166.364 21.5099H158.317C158.251 21.5088 158.19 21.4825 158.143 21.4366C158.097 21.3908 158.07 21.329 158.07 21.2641V9.78004C158.07 9.71516 158.097 9.65324 158.143 9.60735C158.19 9.56147 158.251 9.53523 158.317 9.53418H159.453C159.518 9.53549 159.58 9.56185 159.626 9.60771C159.672 9.65356 159.698 9.71534 159.7 9.78004V20.1352H166.367C166.399 20.133 166.433 20.1379 166.463 20.1495C166.496 20.1612 166.523 20.1791 166.547 20.2024C166.57 20.2258 166.588 20.2537 166.599 20.2845C166.611 20.3152 166.617 20.3481 166.614 20.3809" fill="white"/>
<path d="M182.287 20.3795V21.2625C182.29 21.2954 182.284 21.3283 182.272 21.3591C182.26 21.3899 182.243 21.4178 182.219 21.4411C182.196 21.4643 182.167 21.4824 182.136 21.494C182.105 21.5057 182.072 21.5105 182.04 21.5084H173.35C173.284 21.5074 173.223 21.4811 173.176 21.4352C173.129 21.3893 173.103 21.3274 173.102 21.2625V9.77857C173.103 9.71368 173.129 9.65176 173.176 9.60588C173.223 9.55999 173.284 9.53375 173.35 9.5327H181.842C181.875 9.5306 181.908 9.53552 181.939 9.54712C181.97 9.55874 181.999 9.57677 182.022 9.60005C182.045 9.62331 182.063 9.65126 182.075 9.68205C182.086 9.71283 182.092 9.74574 182.089 9.77857V10.6616C182.092 10.6945 182.086 10.7274 182.075 10.7582C182.063 10.7889 182.045 10.8169 182.022 10.8402C181.999 10.8634 181.97 10.8815 181.939 10.8931C181.908 10.9047 181.875 10.9096 181.842 10.9075H174.731V14.6569H181.05C181.084 14.6549 181.116 14.6597 181.147 14.6709C181.178 14.6823 181.205 14.6999 181.229 14.7227C181.252 14.7453 181.27 14.7726 181.283 14.8029C181.294 14.833 181.299 14.8653 181.297 14.8977V15.7858C181.3 15.8186 181.294 15.8513 181.283 15.8818C181.271 15.9124 181.254 15.9401 181.23 15.9634C181.207 15.9865 181.179 16.0044 181.148 16.0161C181.118 16.0277 181.084 16.0326 181.05 16.0307H174.731V20.1336H182.04C182.073 20.1316 182.107 20.1364 182.138 20.1481C182.168 20.1596 182.196 20.1777 182.219 20.201C182.243 20.2242 182.262 20.2522 182.273 20.2829C182.285 20.3138 182.29 20.3466 182.288 20.3795" fill="white"/>
<path d="M15.8917 31.8866C11.6802 31.8838 7.64185 30.2106 4.66258 27.2341C1.6833 24.2575 0.00647413 20.2207 0 16.0092C0.00647321 11.7976 1.68321 7.76049 4.66243 4.78357C7.64164 1.80665 11.68 0.132993 15.8917 0.129761C20.1033 0.132993 24.1416 1.80665 27.1208 4.78357C30.1 7.76049 31.7767 11.7976 31.7833 16.0092C31.7767 20.2207 30.1 24.2575 27.1208 27.2341C24.1414 30.2106 20.1032 31.8838 15.8917 31.8866ZM15.8917 1.3522C12.0041 1.35489 8.27631 2.89959 5.52622 5.64738C2.77615 8.39518 1.22837 12.1216 1.22244 16.0092C1.22622 19.8973 2.77339 23.6248 5.52399 26.3727C8.27459 29.1206 12.0036 30.6642 15.8917 30.6642C19.7797 30.6642 23.5088 29.1206 26.2593 26.3727C29.01 23.6248 30.5571 19.8973 30.5609 16.0092C30.5549 12.1216 29.0071 8.39518 26.2571 5.64738C23.507 2.89959 19.7792 1.35489 15.8917 1.3522Z" fill="white"/>
<path d="M17.9 29.3744C14.4108 29.3716 11.0652 27.9851 8.59707 25.5189C6.1289 23.0526 4.73977 19.7081 4.73438 16.2189C4.73977 12.7298 6.1289 9.38523 8.59707 6.91898C11.0652 4.45273 14.4108 3.06618 17.9 3.06348C21.3891 3.06618 24.7347 4.45273 27.2029 6.91898C29.671 9.38523 31.0601 12.7298 31.0655 16.2189C31.0601 19.7081 29.671 23.0526 27.2029 25.5189C24.7347 27.9851 21.3891 29.3716 17.9 29.3744ZM17.9 4.01291C14.6628 4.0156 11.5589 5.30221 9.26911 7.59047C6.97933 9.87872 5.69068 12.9818 5.68583 16.2189C5.69122 19.4557 6.98013 22.5583 9.26986 24.8461C11.5596 27.134 14.6631 28.4203 17.9 28.4229C21.1368 28.4203 24.2403 27.134 26.53 24.8461C28.8199 22.5583 30.1088 19.4557 30.1142 16.2189C30.1088 12.9821 28.8199 9.87956 26.53 7.59175C24.2403 5.30394 21.1368 4.01765 17.9 4.01496V4.01291Z" fill="white"/>
<path d="M19.9103 26.8639C17.1436 26.8617 14.4908 25.7623 12.5337 23.8067C10.5766 21.8512 9.47503 19.1991 9.4707 16.4323C9.47503 13.6657 10.5766 11.0137 12.5337 9.05816C14.4908 7.10259 17.1436 6.00314 19.9103 6.00098C22.6771 6.0026 25.3303 7.10188 27.2874 9.05756C29.2447 11.0133 30.3461 13.6656 30.3498 16.4323C30.3456 19.1991 29.244 21.8512 27.2869 23.8067C25.3297 25.7623 22.677 26.8617 19.9103 26.8639ZM19.9103 6.67942C17.3235 6.68104 14.8428 7.70884 13.0128 9.5373C11.1828 11.3658 10.1529 13.8455 10.1491 16.4323C10.1534 19.0189 11.1836 21.4981 13.0135 23.3262C14.8434 25.1542 17.3238 26.1818 19.9103 26.1834C22.4968 26.1818 24.9772 25.1542 26.8071 23.3262C28.637 21.4981 29.6671 19.0189 29.6715 16.4323C29.6677 13.8455 28.6377 11.3658 26.8077 9.5373C24.9777 7.70884 22.4972 6.68104 19.9103 6.67942Z" fill="white"/>
<path d="M21.9186 24.3525C19.8744 24.3509 17.9142 23.5385 16.4682 22.0937C15.0222 20.6487 14.2083 18.6892 14.2051 16.645C14.2078 14.6005 15.0214 12.6405 16.4675 11.1951C17.9136 9.74979 19.8741 8.93717 21.9186 8.93555C23.9633 8.93717 25.9236 9.74979 27.3697 11.1951C28.8159 12.6405 29.6294 14.6005 29.6322 16.645C29.6289 18.6892 28.8151 20.6487 27.369 22.0937C25.923 23.5385 23.9628 24.3509 21.9186 24.3525ZM21.9186 9.34303C19.9821 9.34465 18.1254 10.1143 16.7557 11.4833C15.3859 12.8522 14.6153 14.7085 14.6125 16.645C14.6157 18.5811 15.3868 20.437 16.7564 21.8055C18.126 23.1739 19.9825 23.9434 21.9186 23.945C23.8547 23.9434 25.7113 23.1739 27.0808 21.8055C28.4504 20.437 29.2215 18.5811 29.2247 16.645C29.2219 14.7085 28.4513 12.8522 27.0816 11.4833C25.712 10.1143 23.8551 9.34465 21.9186 9.34303Z" fill="white"/>
</g>
<defs>
<clipPath id="clip0_604_594">
<rect width="182.356" height="32" fill="white"/>
</clipPath>
</defs>
</svg>
