<svg width="64" height="64" viewBox="0 0 64 64" fill="none" xmlns="http://www.w3.org/2000/svg">
<rect width="64" height="64" fill="black"/>
<path d="M47.019 18.1362H58V22.3622C58 28.0926 53.3519 32.7243 47.5995 32.7243H47.0182V18.1362H47.019ZM31.3899 12H47.019V51.8839H45.1601C33.8302 51.8839 31.5648 44.011 31.5648 37.0069L31.3899 12ZM6 21.0304C6 28.1507 11.1128 30.7553 16.8069 31.6241H6V52H16.4005C26.8584 52 28.0785 47.369 28.0785 42.9696C28.0785 37.586 24.3599 33.8238 18.6083 32.3759H28.0785V12H17.6781C7.22011 12 6 16.631 6 21.0304Z" fill="white"/>
</svg>
